<?xml version="1.0" encoding="UTF-8" standalone="no"?>
<!DOCTYPE svg PUBLIC "-//W3C//DTD SVG 1.1//EN"
 "http://www.w3.org/Graphics/SVG/1.1/DTD/svg11.dtd">
<!-- Generated by graphviz version 3.0.0 (20220226.1711)
 -->
<!-- Title: Database Structure Pages: 1 -->
<svg width="881pt" height="643pt"
 viewBox="0.00 0.00 881.00 642.74" xmlns="http://www.w3.org/2000/svg" xmlns:xlink="http://www.w3.org/1999/xlink">
<g id="graph0" class="graph" transform="scale(1 1) rotate(0) translate(4 638.74)">
<title>Database Structure</title>
<polygon fill="white" stroke="transparent" points="-4,4 -4,-638.74 877,-638.74 877,4 -4,4"/>
<text text-anchor="middle" x="436.5" y="-619.54" font-family="Helvetica,sans-Serif" font-size="14.00">ER Diagram: project_group14</text>
<!-- actions -->
<g id="node1" class="node">
<title>actions</title>
<polygon fill="#dddddd" stroke="transparent" points="238,-316.85 238,-337.85 367,-337.85 367,-316.85 238,-316.85"/>
<polygon fill="none" stroke="black" points="238,-316.85 238,-337.85 367,-337.85 367,-316.85 238,-316.85"/>
<text text-anchor="start" x="283" y="-323.65" font-family="Times,serif" font-size="14.00">actions</text>
<polygon fill="none" stroke="black" points="238,-295.85 238,-316.85 367,-316.85 367,-295.85 238,-295.85"/>
<text text-anchor="start" x="286.5" y="-303.65" font-family="Times,serif" font-size="14.00">id:</text>
<text text-anchor="start" x="301.5" y="-303.65" font-family="Helvetica,sans-Serif" font-style="oblique" font-size="10.00">INT</text>
<polygon fill="none" stroke="black" points="238,-274.85 238,-295.85 367,-295.85 367,-274.85 238,-274.85"/>
<text text-anchor="start" x="271" y="-282.65" font-family="Times,serif" font-size="14.00">amount:</text>
<text text-anchor="start" x="317" y="-282.65" font-family="Helvetica,sans-Serif" font-style="oblique" font-size="10.00">INT</text>
<polygon fill="none" stroke="black" points="238,-253.85 238,-274.85 367,-274.85 367,-253.85 238,-253.85"/>
<text text-anchor="start" x="277" y="-261.65" font-family="Times,serif" font-size="14.00">profit:</text>
<text text-anchor="start" x="311" y="-261.65" font-family="Helvetica,sans-Serif" font-style="oblique" font-size="10.00">INT</text>
<polygon fill="none" stroke="black" points="238,-232.85 238,-253.85 367,-253.85 367,-232.85 238,-232.85"/>
<text text-anchor="start" x="280" y="-240.65" font-family="Times,serif" font-size="14.00">type:</text>
<text text-anchor="start" x="308" y="-240.65" font-family="Helvetica,sans-Serif" font-style="oblique" font-size="10.00">INT</text>
<polygon fill="none" stroke="black" points="238,-211.85 238,-232.85 367,-232.85 367,-211.85 238,-211.85"/>
<text text-anchor="start" x="241" y="-219.65" font-family="Times,serif" font-size="14.00">receiver_player_id:</text>
<text text-anchor="start" x="347" y="-219.65" font-family="Helvetica,sans-Serif" font-style="oblique" font-size="10.00">INT</text>
</g>
<!-- players -->
<g id="node4" class="node">
<title>players</title>
<polygon fill="#dddddd" stroke="transparent" points="480,-176.85 480,-197.85 584,-197.85 584,-176.85 480,-176.85"/>
<polygon fill="none" stroke="black" points="480,-176.85 480,-197.85 584,-197.85 584,-176.85 480,-176.85"/>
<text text-anchor="start" x="512" y="-183.65" font-family="Times,serif" font-size="14.00">players</text>
<polygon fill="none" stroke="black" points="480,-155.85 480,-176.85 584,-176.85 584,-155.85 480,-155.85"/>
<text text-anchor="start" x="516" y="-163.65" font-family="Times,serif" font-size="14.00">id:</text>
<text text-anchor="start" x="531" y="-163.65" font-family="Helvetica,sans-Serif" font-style="oblique" font-size="10.00">INT</text>
<polygon fill="none" stroke="black" points="480,-134.85 480,-155.85 584,-155.85 584,-134.85 480,-134.85"/>
<text text-anchor="start" x="487" y="-142.65" font-family="Times,serif" font-size="14.00">jail_duration:</text>
<text text-anchor="start" x="560" y="-142.65" font-family="Helvetica,sans-Serif" font-style="oblique" font-size="10.00">INT</text>
<polygon fill="none" stroke="black" points="480,-113.85 480,-134.85 584,-134.85 584,-113.85 480,-113.85"/>
<text text-anchor="start" x="502.5" y="-121.65" font-family="Times,serif" font-size="14.00">money:</text>
<text text-anchor="start" x="544.5" y="-121.65" font-family="Helvetica,sans-Serif" font-style="oblique" font-size="10.00">INT</text>
<polygon fill="none" stroke="black" points="480,-92.85 480,-113.85 584,-113.85 584,-92.85 480,-92.85"/>
<text text-anchor="start" x="483" y="-100.65" font-family="Times,serif" font-size="14.00">order_of_play:</text>
<text text-anchor="start" x="564" y="-100.65" font-family="Helvetica,sans-Serif" font-style="oblique" font-size="10.00">INT</text>
<polygon fill="none" stroke="black" points="480,-71.85 480,-92.85 584,-92.85 584,-71.85 480,-71.85"/>
<text text-anchor="start" x="497.5" y="-79.65" font-family="Times,serif" font-size="14.00">game_id:</text>
<text text-anchor="start" x="549.5" y="-79.65" font-family="Helvetica,sans-Serif" font-style="oblique" font-size="10.00">INT</text>
<polygon fill="none" stroke="black" points="480,-50.85 480,-71.85 584,-71.85 584,-50.85 480,-50.85"/>
<text text-anchor="start" x="501.5" y="-58.65" font-family="Times,serif" font-size="14.00">user_id:</text>
<text text-anchor="start" x="545.5" y="-58.65" font-family="Helvetica,sans-Serif" font-style="oblique" font-size="10.00">INT</text>
</g>
<!-- actions&#45;&gt;players -->
<g id="edge1" class="edge">
<title>actions:receiver_player_id&#45;&gt;players:id</title>
<path fill="none" stroke="#444444" stroke-dasharray="5,2" d="M368,-221.85C419.51,-221.85 423.6,-173.71 469,-167.5"/>
<polygon fill="#444444" stroke="#444444" points="479.23,-170.34 469.02,-167.5 478.77,-163.35 479.23,-170.34"/>
</g>
<!-- games -->
<g id="node2" class="node">
<title>games</title>
<polygon fill="#dddddd" stroke="transparent" points="724,-483.85 724,-504.85 838,-504.85 838,-483.85 724,-483.85"/>
<polygon fill="none" stroke="black" points="724,-483.85 724,-504.85 838,-504.85 838,-483.85 724,-483.85"/>
<text text-anchor="start" x="763" y="-490.65" font-family="Times,serif" font-size="14.00">games</text>
<polygon fill="none" stroke="black" points="724,-462.85 724,-483.85 838,-483.85 838,-462.85 724,-462.85"/>
<text text-anchor="start" x="765" y="-470.65" font-family="Times,serif" font-size="14.00">id:</text>
<text text-anchor="start" x="780" y="-470.65" font-family="Helvetica,sans-Serif" font-style="oblique" font-size="10.00">INT</text>
<polygon fill="none" stroke="black" points="724,-441.85 724,-462.85 838,-462.85 838,-441.85 724,-441.85"/>
<text text-anchor="start" x="729" y="-449.65" font-family="Times,serif" font-size="14.00">end_date:</text>
<text text-anchor="start" x="782" y="-449.65" font-family="Helvetica,sans-Serif" font-style="oblique" font-size="10.00">DATETIME</text>
<polygon fill="none" stroke="black" points="724,-420.85 724,-441.85 838,-441.85 838,-420.85 724,-420.85"/>
<text text-anchor="start" x="735" y="-428.65" font-family="Times,serif" font-size="14.00">player_count:</text>
<text text-anchor="start" x="810" y="-428.65" font-family="Helvetica,sans-Serif" font-style="oblique" font-size="10.00">INT</text>
<polygon fill="none" stroke="black" points="724,-399.85 724,-420.85 838,-420.85 838,-399.85 724,-399.85"/>
<text text-anchor="start" x="727" y="-407.65" font-family="Times,serif" font-size="14.00">start_date:</text>
<text text-anchor="start" x="784" y="-407.65" font-family="Helvetica,sans-Serif" font-style="oblique" font-size="10.00">DATETIME</text>
<polygon fill="none" stroke="black" points="724,-378.85 724,-399.85 838,-399.85 838,-378.85 724,-378.85"/>
<text text-anchor="start" x="759.5" y="-386.65" font-family="Times,serif" font-size="14.00">turn:</text>
<text text-anchor="start" x="785.5" y="-386.65" font-family="Helvetica,sans-Serif" font-style="oblique" font-size="10.00">INT</text>
<polygon fill="none" stroke="black" points="724,-357.85 724,-378.85 838,-378.85 838,-357.85 724,-357.85"/>
<text text-anchor="start" x="742" y="-365.65" font-family="Times,serif" font-size="14.00">turn_order:</text>
<text text-anchor="start" x="803" y="-365.65" font-family="Helvetica,sans-Serif" font-style="oblique" font-size="10.00">INT</text>
<polygon fill="none" stroke="black" points="724,-336.85 724,-357.85 838,-357.85 838,-336.85 724,-336.85"/>
<text text-anchor="start" x="742.5" y="-344.65" font-family="Times,serif" font-size="14.00">type:</text>
<text text-anchor="start" x="770.5" y="-344.65" font-family="Helvetica,sans-Serif" font-style="oblique" font-size="10.00">VARCHAR</text>
</g>
<!-- moves -->
<g id="node3" class="node">
<title>moves</title>
<polygon fill="#dddddd" stroke="transparent" points="8,-468.85 8,-489.85 132,-489.85 132,-468.85 8,-468.85"/>
<polygon fill="none" stroke="black" points="8,-468.85 8,-489.85 132,-489.85 132,-468.85 8,-468.85"/>
<text text-anchor="start" x="51.5" y="-475.65" font-family="Times,serif" font-size="14.00">moves</text>
<polygon fill="none" stroke="black" points="8,-447.85 8,-468.85 132,-468.85 132,-447.85 8,-447.85"/>
<text text-anchor="start" x="54" y="-455.65" font-family="Times,serif" font-size="14.00">id:</text>
<text text-anchor="start" x="69" y="-455.65" font-family="Helvetica,sans-Serif" font-style="oblique" font-size="10.00">INT</text>
<polygon fill="none" stroke="black" points="8,-426.85 8,-447.85 132,-447.85 132,-426.85 8,-426.85"/>
<text text-anchor="start" x="15" y="-434.65" font-family="Times,serif" font-size="14.00">current_location:</text>
<text text-anchor="start" x="108" y="-434.65" font-family="Helvetica,sans-Serif" font-style="oblique" font-size="10.00">INT</text>
<polygon fill="none" stroke="black" points="8,-405.85 8,-426.85 132,-426.85 132,-405.85 8,-405.85"/>
<text text-anchor="start" x="32" y="-413.65" font-family="Times,serif" font-size="14.00">dice_roll1:</text>
<text text-anchor="start" x="91" y="-413.65" font-family="Helvetica,sans-Serif" font-style="oblique" font-size="10.00">INT</text>
<polygon fill="none" stroke="black" points="8,-384.85 8,-405.85 132,-405.85 132,-384.85 8,-384.85"/>
<text text-anchor="start" x="32" y="-392.65" font-family="Times,serif" font-size="14.00">dice_roll2:</text>
<text text-anchor="start" x="91" y="-392.65" font-family="Helvetica,sans-Serif" font-style="oblique" font-size="10.00">INT</text>
<polygon fill="none" stroke="black" points="8,-363.85 8,-384.85 132,-384.85 132,-363.85 8,-363.85"/>
<text text-anchor="start" x="11" y="-371.65" font-family="Times,serif" font-size="14.00">previous_location:</text>
<text text-anchor="start" x="112" y="-371.65" font-family="Helvetica,sans-Serif" font-style="oblique" font-size="10.00">INT</text>
<polygon fill="none" stroke="black" points="8,-342.85 8,-363.85 132,-363.85 132,-342.85 8,-342.85"/>
<text text-anchor="start" x="40" y="-350.65" font-family="Times,serif" font-size="14.00">turn_id:</text>
<text text-anchor="start" x="83" y="-350.65" font-family="Helvetica,sans-Serif" font-style="oblique" font-size="10.00">INT</text>
<polygon fill="none" stroke="black" points="8,-321.85 8,-342.85 132,-342.85 132,-321.85 8,-321.85"/>
<text text-anchor="start" x="34" y="-329.65" font-family="Times,serif" font-size="14.00">action_id:</text>
<text text-anchor="start" x="89" y="-329.65" font-family="Helvetica,sans-Serif" font-style="oblique" font-size="10.00">INT</text>
<polygon fill="none" stroke="black" points="8,-300.85 8,-321.85 132,-321.85 132,-300.85 8,-300.85"/>
<text text-anchor="start" x="35.5" y="-308.65" font-family="Times,serif" font-size="14.00">game_id:</text>
<text text-anchor="start" x="87.5" y="-308.65" font-family="Helvetica,sans-Serif" font-style="oblique" font-size="10.00">INT</text>
<polygon fill="none" stroke="black" points="8,-279.85 8,-300.85 132,-300.85 132,-279.85 8,-279.85"/>
<text text-anchor="start" x="34" y="-287.65" font-family="Times,serif" font-size="14.00">player_id:</text>
<text text-anchor="start" x="89" y="-287.65" font-family="Helvetica,sans-Serif" font-style="oblique" font-size="10.00">INT</text>
</g>
<!-- moves&#45;&gt;actions -->
<g id="edge3" class="edge">
<title>moves:action_id&#45;&gt;actions:id</title>
<path fill="none" stroke="#444444" stroke-dasharray="5,2" d="M133,-331.85C176.82,-331.85 187.83,-310.6 226.53,-307.28"/>
<polygon fill="#444444" stroke="#444444" points="237.14,-310.34 227.01,-307.26 236.86,-303.35 237.14,-310.34"/>
</g>
<!-- moves&#45;&gt;games -->
<g id="edge4" class="edge">
<title>moves:game_id&#45;&gt;games:id</title>
<path fill="none" stroke="#444444" stroke-dasharray="5,2" d="M133,-310.85C266.31,-310.85 121.13,-517.21 229.5,-594.85 289.25,-637.65 592.34,-557.69 599.5,-554.85 657.17,-531.93 657.51,-479.96 712.83,-474.34"/>
<polygon fill="#444444" stroke="#444444" points="723.17,-477.34 713.01,-474.33 722.83,-470.35 723.17,-477.34"/>
</g>
<!-- moves&#45;&gt;players -->
<g id="edge2" class="edge">
<title>moves:player_id&#45;&gt;players:id</title>
<path fill="none" stroke="#444444" stroke-dasharray="5,2" d="M133,-289.85C191.95,-289.85 176.21,-224.05 229.5,-198.85 327.4,-152.54 364.85,-165.92 468.73,-166.8"/>
<polygon fill="#444444" stroke="#444444" points="478.99,-170.35 469,-166.8 479.01,-163.35 478.99,-170.35"/>
</g>
<!-- players&#45;&gt;games -->
<g id="edge6" class="edge">
<title>players:game_id&#45;&gt;games:id</title>
<path fill="none" stroke="#444444" stroke-dasharray="5,2" d="M585,-81.85C766.1,-81.85 547.18,-458.68 712.65,-473.4"/>
<polygon fill="#444444" stroke="#444444" points="722.85,-477.34 713.01,-473.42 723.15,-470.35 722.85,-477.34"/>
</g>
<!-- users -->
<g id="node8" class="node">
<title>users</title>
<polygon fill="#dddddd" stroke="transparent" points="698,-151.85 698,-172.85 865,-172.85 865,-151.85 698,-151.85"/>
<polygon fill="none" stroke="black" points="698,-151.85 698,-172.85 865,-172.85 865,-151.85 698,-151.85"/>
<text text-anchor="start" x="767.5" y="-158.65" font-family="Times,serif" font-size="14.00">users</text>
<polygon fill="none" stroke="black" points="698,-130.85 698,-151.85 865,-151.85 865,-130.85 698,-130.85"/>
<text text-anchor="start" x="765.5" y="-138.65" font-family="Times,serif" font-size="14.00">id:</text>
<text text-anchor="start" x="780.5" y="-138.65" font-family="Helvetica,sans-Serif" font-style="oblique" font-size="10.00">INT</text>
<polygon fill="none" stroke="black" points="698,-109.85 698,-130.85 865,-130.85 865,-109.85 698,-109.85"/>
<text text-anchor="start" x="726" y="-117.65" font-family="Times,serif" font-size="14.00">created_at:</text>
<text text-anchor="start" x="786" y="-117.65" font-family="Helvetica,sans-Serif" font-style="oblique" font-size="10.00">DATETIME</text>
<polygon fill="none" stroke="black" points="698,-88.85 698,-109.85 865,-109.85 865,-88.85 698,-88.85"/>
<text text-anchor="start" x="739.5" y="-96.65" font-family="Times,serif" font-size="14.00">email:</text>
<text text-anchor="start" x="774.5" y="-96.65" font-family="Helvetica,sans-Serif" font-style="oblique" font-size="10.00">VARCHAR</text>
<polygon fill="none" stroke="black" points="698,-67.85 698,-88.85 865,-88.85 865,-67.85 698,-67.85"/>
<text text-anchor="start" x="729" y="-75.65" font-family="Times,serif" font-size="14.00">password:</text>
<text text-anchor="start" x="784" y="-75.65" font-family="Helvetica,sans-Serif" font-style="oblique" font-size="10.00">TINYBLOB</text>
<polygon fill="none" stroke="black" points="698,-46.85 698,-67.85 865,-67.85 865,-46.85 698,-46.85"/>
<text text-anchor="start" x="701" y="-54.65" font-family="Times,serif" font-size="14.00">password_reminder:</text>
<text text-anchor="start" x="813" y="-54.65" font-family="Helvetica,sans-Serif" font-style="oblique" font-size="10.00">VARCHAR</text>
<polygon fill="none" stroke="black" points="698,-25.85 698,-46.85 865,-46.85 865,-25.85 698,-25.85"/>
<text text-anchor="start" x="728.5" y="-33.65" font-family="Times,serif" font-size="14.00">username:</text>
<text text-anchor="start" x="785.5" y="-33.65" font-family="Helvetica,sans-Serif" font-style="oblique" font-size="10.00">VARCHAR</text>
</g>
<!-- players&#45;&gt;users -->
<g id="edge5" class="edge">
<title>players:user_id&#45;&gt;users:id</title>
<path fill="none" stroke="#444444" stroke-dasharray="5,2" d="M585,-60.85C642.83,-60.85 636.59,-132.63 686.92,-141.05"/>
<polygon fill="#444444" stroke="#444444" points="696.72,-145.34 687.03,-141.05 697.28,-138.36 696.72,-145.34"/>
</g>
<!-- properties -->
<g id="node5" class="node">
<title>properties</title>
<polygon fill="#dddddd" stroke="transparent" points="488,-500.85 488,-521.85 577,-521.85 577,-500.85 488,-500.85"/>
<polygon fill="none" stroke="black" points="488,-500.85 488,-521.85 577,-521.85 577,-500.85 488,-500.85"/>
<text text-anchor="start" x="505" y="-507.65" font-family="Times,serif" font-size="14.00">properties</text>
<polygon fill="none" stroke="black" points="488,-479.85 488,-500.85 577,-500.85 577,-479.85 488,-479.85"/>
<text text-anchor="start" x="516.5" y="-487.65" font-family="Times,serif" font-size="14.00">id:</text>
<text text-anchor="start" x="531.5" y="-487.65" font-family="Helvetica,sans-Serif" font-style="oblique" font-size="10.00">INT</text>
<polygon fill="none" stroke="black" points="488,-458.85 488,-479.85 577,-479.85 577,-458.85 488,-458.85"/>
<text text-anchor="start" x="491" y="-466.65" font-family="Times,serif" font-size="14.00">name:</text>
<text text-anchor="start" x="525" y="-466.65" font-family="Helvetica,sans-Serif" font-style="oblique" font-size="10.00">VARCHAR</text>
</g>
<!-- property_games -->
<g id="node6" class="node">
<title>property_games</title>
<polygon fill="#dddddd" stroke="transparent" points="255,-560.85 255,-581.85 349,-581.85 349,-560.85 255,-560.85"/>
<polygon fill="none" stroke="black" points="255,-560.85 255,-581.85 349,-581.85 349,-560.85 255,-560.85"/>
<text text-anchor="start" x="258" y="-567.65" font-family="Times,serif" font-size="14.00">property_games</text>
<polygon fill="none" stroke="black" points="255,-539.85 255,-560.85 349,-560.85 349,-539.85 255,-539.85"/>
<text text-anchor="start" x="286" y="-547.65" font-family="Times,serif" font-size="14.00">id:</text>
<text text-anchor="start" x="301" y="-547.65" font-family="Helvetica,sans-Serif" font-style="oblique" font-size="10.00">INT</text>
<polygon fill="none" stroke="black" points="255,-518.85 255,-539.85 349,-539.85 349,-518.85 255,-518.85"/>
<text text-anchor="start" x="269.5" y="-526.65" font-family="Times,serif" font-size="14.00">location:</text>
<text text-anchor="start" x="317.5" y="-526.65" font-family="Helvetica,sans-Serif" font-style="oblique" font-size="10.00">INT</text>
<polygon fill="none" stroke="black" points="255,-497.85 255,-518.85 349,-518.85 349,-497.85 255,-497.85"/>
<text text-anchor="start" x="278" y="-505.65" font-family="Times,serif" font-size="14.00">price:</text>
<text text-anchor="start" x="309" y="-505.65" font-family="Helvetica,sans-Serif" font-style="oblique" font-size="10.00">INT</text>
<polygon fill="none" stroke="black" points="255,-476.85 255,-497.85 349,-497.85 349,-476.85 255,-476.85"/>
<text text-anchor="start" x="279.5" y="-484.65" font-family="Times,serif" font-size="14.00">type:</text>
<text text-anchor="start" x="307.5" y="-484.65" font-family="Helvetica,sans-Serif" font-style="oblique" font-size="10.00">INT</text>
<polygon fill="none" stroke="black" points="255,-455.85 255,-476.85 349,-476.85 349,-455.85 255,-455.85"/>
<text text-anchor="start" x="267.5" y="-463.65" font-family="Times,serif" font-size="14.00">game_id:</text>
<text text-anchor="start" x="319.5" y="-463.65" font-family="Helvetica,sans-Serif" font-style="oblique" font-size="10.00">INT</text>
<polygon fill="none" stroke="black" points="255,-434.85 255,-455.85 349,-455.85 349,-434.85 255,-434.85"/>
<text text-anchor="start" x="266" y="-442.65" font-family="Times,serif" font-size="14.00">player_id:</text>
<text text-anchor="start" x="321" y="-442.65" font-family="Helvetica,sans-Serif" font-style="oblique" font-size="10.00">INT</text>
<polygon fill="none" stroke="black" points="255,-413.85 255,-434.85 349,-434.85 349,-413.85 255,-413.85"/>
<text text-anchor="start" x="260" y="-421.65" font-family="Times,serif" font-size="14.00">property_id:</text>
<text text-anchor="start" x="327" y="-421.65" font-family="Helvetica,sans-Serif" font-style="oblique" font-size="10.00">INT</text>
</g>
<!-- property_games&#45;&gt;games -->
<g id="edge8" class="edge">
<title>property_games:game_id&#45;&gt;games:id</title>
<path fill="none" stroke="#444444" stroke-dasharray="5,2" d="M350,-465.85C409.65,-465.85 407.09,-519.69 464.5,-535.85 522.26,-552.1 541.12,-549.68 599.5,-535.85 655.76,-522.52 661.11,-479.34 712.79,-474.32"/>
<polygon fill="#444444" stroke="#444444" points="723.16,-477.34 713.01,-474.31 722.84,-470.35 723.16,-477.34"/>
</g>
<!-- property_games&#45;&gt;players -->
<g id="edge9" class="edge">
<title>property_games:player_id&#45;&gt;players:id</title>
<path fill="none" stroke="#444444" stroke-dasharray="5,2" d="M350,-444.85C482.62,-444.85 350.16,-181.31 468.8,-167.42"/>
<polygon fill="#444444" stroke="#444444" points="479.2,-170.34 469.02,-167.4 478.8,-163.35 479.2,-170.34"/>
</g>
<!-- property_games&#45;&gt;properties -->
<g id="edge7" class="edge">
<title>property_games:property_id&#45;&gt;properties:id</title>
<path fill="none" stroke="#444444" stroke-dasharray="5,2" d="M350,-423.85C414.02,-423.85 419.04,-483.07 476.84,-489.32"/>
<polygon fill="#444444" stroke="#444444" points="486.82,-493.34 477.01,-489.33 487.18,-486.35 486.82,-493.34"/>
</g>
<!-- scores -->
<g id="node7" class="node">
<title>scores</title>
<polygon fill="#dddddd" stroke="transparent" points="473,-376.85 473,-397.85 592,-397.85 592,-376.85 473,-376.85"/>
<polygon fill="none" stroke="black" points="473,-376.85 473,-397.85 592,-397.85 592,-376.85 473,-376.85"/>
<text text-anchor="start" x="515.5" y="-383.65" font-family="Times,serif" font-size="14.00">scores</text>
<polygon fill="none" stroke="black" points="473,-355.85 473,-376.85 592,-376.85 592,-355.85 473,-355.85"/>
<text text-anchor="start" x="516.5" y="-363.65" font-family="Times,serif" font-size="14.00">id:</text>
<text text-anchor="start" x="531.5" y="-363.65" font-family="Helvetica,sans-Serif" font-style="oblique" font-size="10.00">INT</text>
<polygon fill="none" stroke="black" points="473,-334.85 473,-355.85 592,-355.85 592,-334.85 473,-334.85"/>
<text text-anchor="start" x="507.5" y="-342.65" font-family="Times,serif" font-size="14.00">score:</text>
<text text-anchor="start" x="540.5" y="-342.65" font-family="Helvetica,sans-Serif" font-style="oblique" font-size="10.00">INT</text>
<polygon fill="none" stroke="black" points="473,-313.85 473,-334.85 592,-334.85 592,-313.85 473,-313.85"/>
<text text-anchor="start" x="476" y="-321.65" font-family="Times,serif" font-size="14.00">timestamp:</text>
<text text-anchor="start" x="538" y="-321.65" font-family="Helvetica,sans-Serif" font-style="oblique" font-size="10.00">DATETIME</text>
<polygon fill="none" stroke="black" points="473,-292.85 473,-313.85 592,-313.85 592,-292.85 473,-292.85"/>
<text text-anchor="start" x="498" y="-300.65" font-family="Times,serif" font-size="14.00">game_id:</text>
<text text-anchor="start" x="550" y="-300.65" font-family="Helvetica,sans-Serif" font-style="oblique" font-size="10.00">INT</text>
<polygon fill="none" stroke="black" points="473,-271.85 473,-292.85 592,-292.85 592,-271.85 473,-271.85"/>
<text text-anchor="start" x="502" y="-279.65" font-family="Times,serif" font-size="14.00">user_id:</text>
<text text-anchor="start" x="546" y="-279.65" font-family="Helvetica,sans-Serif" font-style="oblique" font-size="10.00">INT</text>
</g>
<!-- scores&#45;&gt;games -->
<g id="edge10" class="edge">
<title>scores:game_id&#45;&gt;games:id</title>
<path fill="none" stroke="#444444" stroke-dasharray="5,2" d="M593,-302.85C684.93,-302.85 631.84,-461.39 713,-473.16"/>
<polygon fill="#444444" stroke="#444444" points="722.76,-477.34 713.02,-473.16 723.24,-470.36 722.76,-477.34"/>
</g>
<!-- scores&#45;&gt;users -->
<g id="edge11" class="edge">
<title>scores:user_id&#45;&gt;users:id</title>
<path fill="none" stroke="#444444" stroke-dasharray="5,2" d="M593,-281.85C666.88,-281.85 623.99,-154.66 686.92,-142.74"/>
<polygon fill="#444444" stroke="#444444" points="697.31,-145.33 687.04,-142.73 696.69,-138.36 697.31,-145.33"/>
</g>
</g>
</svg>
